<svg width="248" height="20" viewBox="0 0 248 20" fill="none" xmlns="http://www.w3.org/2000/svg">
<path fill-rule="evenodd" clip-rule="evenodd" d="M3.93092 15.7349H13.4675C14.5527 15.7349 15.433 16.6194 15.433 17.7114C15.433 18.8027 14.5527 19.688 13.4675 19.688H1.96546C0.879562 19.688 0 18.8027 0 17.7114V2.2881C0 1.19682 0.879562 0.311523 1.96546 0.311523C3.0506 0.311523 3.93092 1.19682 3.93092 2.2881V15.7349ZM59.7578 15.7349C56.613 15.7349 54.0549 13.1623 54.0549 9.9998C54.0549 6.83804 56.613 4.2647 59.7578 4.2647C62.9025 4.2647 65.4606 6.83804 65.4606 9.9998C65.4606 13.1623 62.9025 15.7349 59.7578 15.7349ZM31.73 15.7349C28.5861 15.7349 26.0272 13.1623 26.0272 9.9998C26.0272 6.83804 28.5861 4.2647 31.73 4.2647C34.8748 4.2647 37.4329 6.83804 37.4329 9.9998C37.4329 13.1623 34.8748 15.7349 31.73 15.7349ZM59.7578 0.311552C55.119 0.311552 51.2363 3.62629 50.3266 8.02322H41.1612C40.2515 3.62629 36.3688 0.311552 31.73 0.311552C26.418 0.311552 22.0963 4.65774 22.0963 9.9998C22.0963 15.3419 26.418 19.688 31.73 19.688C36.3688 19.688 40.2515 16.3741 41.1612 11.9764H50.3266C51.2363 16.3741 55.119 19.688 59.7578 19.688C65.0698 19.688 69.3915 15.3419 69.3915 9.9998C69.3915 4.65774 65.0698 0.311552 59.7578 0.311552ZM92.9638 2.28826C92.9638 1.19622 93.8441 0.311687 94.9293 0.311687C96.0144 0.311687 96.8947 1.19622 96.8947 2.28826V10.3597C96.8947 10.9004 96.6741 11.4169 96.2855 11.7902L88.6172 19.1422C88.2369 19.5057 87.7489 19.6874 87.261 19.6874C86.7579 19.6874 86.2549 19.4943 85.8716 19.1088L78.2033 11.3972C77.8343 11.0268 77.6272 10.524 77.6272 9.99994V2.28826C77.6272 1.19622 78.5075 0.311687 79.5927 0.311687C80.6786 0.311687 81.5581 1.19622 81.5581 2.28826V9.18128L87.2941 14.9489L92.9638 9.51299V2.28826ZM105.131 2.28826C105.131 1.19622 106.011 0.311687 107.096 0.311687C108.181 0.311687 109.062 1.19622 109.062 2.28826V17.7109C109.062 18.8029 108.181 19.6874 107.096 19.6874C106.011 19.6874 105.131 18.8029 105.131 17.7109V2.28826Z" fill="white"/>
<path d="M139.43 13.8132L140.842 12.337C141.484 13.043 142.462 13.5725 143.489 13.5725C144.452 13.5725 145.126 12.9788 145.126 12.1605C145.126 10.7163 143.04 10.5398 141.532 9.65726C140.649 9.14378 139.943 8.37356 139.943 7.10592C139.943 5.10015 141.788 3.94482 143.65 3.94482C144.789 3.94482 145.848 4.21761 146.907 5.00387L145.784 6.60849C145.335 6.19129 144.581 5.87036 143.842 5.87036C143.024 5.87036 142.109 6.22338 142.109 7.08987C142.109 8.90309 147.292 8.34147 147.292 12.1284C147.292 14.1181 145.511 15.4981 143.489 15.4981C141.981 15.4981 140.585 14.8723 139.43 13.8132Z" fill="white"/>
<path d="M161.817 6.03082H157.243V8.35752H160.693V10.2831H157.243V13.4121H161.977V15.3376H155.077V4.10529H161.817V6.03082Z" fill="white"/>
<path d="M174.704 5.87036C172.57 5.87036 170.965 7.5873 170.965 9.72144C170.965 11.9037 172.634 13.5725 174.8 13.5725C175.827 13.5725 176.662 13.2195 177.304 12.706V10.2831H174.415V8.35752H179.47V13.3479C178.475 14.6155 176.806 15.4981 174.752 15.4981C171.254 15.4981 168.799 12.9467 168.799 9.72144C168.799 6.49616 171.222 3.94482 174.72 3.94482C176.389 3.94482 177.817 4.57062 178.828 5.54944L177.432 7.02569C176.758 6.35175 175.811 5.87036 174.704 5.87036Z" fill="white"/>
<path d="M192.385 15.4981C191.117 15.4981 189.882 15.113 189.015 14.3427C188.085 13.5083 187.571 12.3209 187.571 10.604V4.10529H189.738V10.7644C189.738 11.7914 190.01 12.4172 190.476 12.8504C190.957 13.3158 191.631 13.5725 192.385 13.5725C193.139 13.5725 193.813 13.3158 194.295 12.8504C194.76 12.4172 195.033 11.7914 195.033 10.7644V4.10529H197.199V10.604C197.199 12.3209 196.686 13.5083 195.755 14.3427C194.888 15.113 193.653 15.4981 192.385 15.4981Z" fill="white"/>
<path d="M208.576 10.3633H207.789V15.3376H205.623V4.10529H209.715C210.87 4.10529 211.608 4.42621 212.17 4.93969C212.78 5.51735 213.165 6.3357 213.165 7.23429C213.165 8.13287 212.78 8.95123 212.17 9.52889C211.865 9.81772 211.496 10.0424 211.047 10.1868L215.251 15.3376H212.571L208.576 10.3633ZM207.789 8.43775H209.587C210.212 8.43775 210.485 8.30938 210.678 8.10078C210.87 7.89218 210.999 7.57126 210.999 7.25033C210.999 6.91336 210.87 6.59244 210.678 6.38384C210.485 6.17524 210.212 6.03082 209.587 6.03082H207.789V8.43775Z" fill="white"/>
<path d="M223.031 9.72144C223.031 11.8395 224.604 13.5725 226.722 13.5725C228.84 13.5725 230.413 11.8395 230.413 9.72144C230.413 7.60335 228.84 5.87036 226.722 5.87036C224.604 5.87036 223.031 7.60335 223.031 9.72144ZM220.865 9.72144C220.865 6.52826 223.256 3.94482 226.722 3.94482C230.188 3.94482 232.579 6.52826 232.579 9.72144C232.579 12.9146 230.188 15.4981 226.722 15.4981C223.256 15.4981 220.865 12.9146 220.865 9.72144Z" fill="white"/>
<path d="M239.158 13.8132L240.571 12.337C241.212 13.043 242.191 13.5725 243.218 13.5725C244.181 13.5725 244.855 12.9788 244.855 12.1605C244.855 10.7163 242.769 10.5398 241.26 9.65726C240.378 9.14378 239.672 8.37356 239.672 7.10592C239.672 5.10015 241.517 3.94482 243.379 3.94482C244.518 3.94482 245.577 4.21761 246.636 5.00387L245.513 6.60849C245.063 6.19129 244.309 5.87036 243.571 5.87036C242.753 5.87036 241.838 6.22338 241.838 7.08987C241.838 8.90309 247.021 8.34147 247.021 12.1284C247.021 14.1181 245.24 15.4981 243.218 15.4981C241.71 15.4981 240.314 14.8723 239.158 13.8132Z" fill="white"/>
<circle cx="124.131" cy="9.9997" r="2.42206" fill="#D19DFC"/>
</svg>
